<?xml version="1.0" encoding="utf-8"?>
<!-- Generator: Adobe Illustrator 22.0.1, SVG Export Plug-In . SVG Version: 6.00 Build 0)  -->
<svg version="1.1" id="圖層_1" xmlns="http://www.w3.org/2000/svg" xmlns:xlink="http://www.w3.org/1999/xlink" x="0px" y="0px"
	 viewBox="0 0 268.2 128.6" style="enable-background:new 0 0 268.2 128.6;" xml:space="preserve">
<style type="text/css">
	.st0{fill:#FFFFFF;}
	.st1{fill:#4FA7DE;}
	.st2{fill:url(#SVGID_1_);}
	.st3{fill:url(#SVGID_2_);}
</style>
<g>
	<path class="st0" d="M18.3,56.8c0,0-1.1-0.2-3.3-0.7c-2.2-0.5-4.3-1.2-6.2-2.1c-1.9-0.9-3.7-2.1-5.4-3.5L8,45
		c1.9,1.7,4.1,3,6.4,3.8c2.3,0.8,4.9,1.3,7.6,1.3c3.7,0,6.6-0.7,8.6-2.1s3.1-3.3,3.1-5.8v0c0-1.8-0.5-3.2-1.4-4.2
		c-0.9-1-2.1-1.8-3.6-2.3c-1.5-0.5-3.4-1-5.7-1.4c-0.1,0-0.1,0-0.2,0c-0.1,0-0.2,0-0.2,0l-0.5-0.1c-3.4-0.6-6.2-1.2-8.3-2
		s-4-2.1-5.5-4c-1.5-2-2.3-4.7-2.3-8.3v0c0-3.2,0.7-5.9,2.1-8.1c1.4-2.2,3.5-3.9,6.2-5.1c2.7-1.2,6-1.8,9.8-1.8
		c1.8,0,3.6,0.2,5.4,0.6c1.8,0.4,3.5,1,5.2,1.8c1.7,0.8,3.4,1.8,5.1,3l-4.1,5.7c-1.9-1.4-3.9-2.5-5.8-3.2c-1.9-0.7-3.9-1.1-5.8-1.1
		c-3.5,0-6.2,0.7-8.1,2.1C14,14.9,13,16.9,13,19.4v0c0,1.8,0.5,3.1,1.5,4.1c1,1,2.2,1.8,3.7,2.2c1.5,0.5,3.6,1,6.2,1.5
		c0.1,0,0.2,0,0.3,0.1c0.1,0,0.2,0,0.3,0.1c0.1,0,0.2,0,0.4,0.1c0.1,0,0.3,0,0.4,0.1c3.1,0.6,5.7,1.4,7.8,2.3
		c2.1,0.9,3.8,2.3,5.2,4.2c1.4,1.9,2.1,4.6,2.1,7.9V42c0,3.1-0.7,5.8-2.2,8s-3.6,3.9-6.4,5.1c-2.8,1.2-6.2,1.7-10.1,1.7
		C19.6,56.8,18.3,56.8,18.3,56.8z"/>
	<path class="st0" d="M51.9,54.1c-2.2-1.9-3.3-4.7-3.3-8.5c0-3.6,1-6.3,3.1-8.1c2-1.8,5.1-2.7,9.2-2.7h10.4l0.5,5.8H60.9
		c-1.9,0-3.3,0.4-4.2,1.2c-0.9,0.8-1.4,2.1-1.4,3.8c0,1.9,0.6,3.2,1.8,4.1c1.2,0.9,3.1,1.3,5.6,1.3c2.7,0,4.8-0.3,6.1-0.9
		c1.3-0.6,2-1.5,2-2.7l0.7,5.1c-0.6,1-1.4,1.8-2.3,2.4c-0.9,0.6-2,1.1-3.2,1.4c-1.2,0.3-2.6,0.5-4.1,0.5
		C57.5,56.8,54.1,55.9,51.9,54.1z M70.9,33.2c0-2.4-0.6-4.2-1.9-5.6c-1.3-1.3-3.1-2-5.4-2c-1.5,0-2.9,0.2-4.3,0.7
		c-1.4,0.4-2.6,1.1-3.7,1.9l-5.2-3.6c1.4-1.7,3.2-3,5.5-3.9c2.3-0.9,4.8-1.4,7.5-1.4c3,0,5.6,0.5,7.8,1.6c2.2,1.1,3.8,2.6,4.9,4.6
		c1.1,2,1.7,4.5,1.7,7.3v23.4h-6.8V33.2z"/>
	<path class="st0" d="M123.4,19.8h7.3L142,51.5l-4,7.8L123.4,19.8z M155.7,19.8l-15.5,45c-0.6,1.7-1.3,3-2.2,4c-0.9,1-2,1.7-3.4,2.1
		s-3,0.6-4.9,0.6h-1.4v-6.9h1.4c1.3,0,2.4-0.3,3.2-0.8c0.8-0.5,1.5-1.5,2.1-2.8l13.5-41.2H155.7z"/>
	<path class="st1" d="M29,61.2h7.2v51.1H29V61.2z M32.5,61.2h28.7V68H32.5V61.2z M32.5,83.9h24.8v6.8H32.5V83.9z"/>
	<linearGradient id="SVGID_1_" gradientUnits="userSpaceOnUse" x1="82.2103" y1="5.3156" x2="82.2103" y2="113.2996">
		<stop  offset="0" style="stop-color:#FFFFFF"/>
		<stop  offset="0.3" style="stop-color:#FFFFFF"/>
		<stop  offset="0.7" style="stop-color:#4FA7DE"/>
		<stop  offset="1" style="stop-color:#4FA7DE"/>
	</linearGradient>
	<path class="st2" d="M89.6,76.2V5.3h7.2v71 M74.8,98.5c0,2.6,0.7,4.5,2,5.9c1.3,1.4,3.1,2.1,5.5,2.1c2.3,0,4.2-0.6,5.4-1.9
		c1.3-1.2,1.9-3,1.9-5.3l0.5,7.6c-0.8,1.8-2,3.3-3.7,4.5c-1.7,1.2-3.8,1.8-6.2,1.8c-4,0-7.1-1.3-9.3-3.9c-2.2-2.6-3.3-6.2-3.3-11
		V76.3h7.2V98.5z M89.6,76.2l7.2,0.1v36.5h-7.1L89.6,76.2z"/>
	<linearGradient id="SVGID_2_" gradientUnits="userSpaceOnUse" x1="121.1836" y1="5.2021" x2="121.1836" y2="112.269">
		<stop  offset="0" style="stop-color:#FFFFFF"/>
		<stop  offset="0.3" style="stop-color:#FFFFFF"/>
		<stop  offset="0.7" style="stop-color:#4FA7DE"/>
		<stop  offset="1" style="stop-color:#4FA7DE"/>
	</linearGradient>
	<path class="st3" d="M106.6,75.8l-0.1-70.6h7.2l0.1,70.6 M106.6,75.8h7.2v36.5h-7.2V75.8z M128.7,90.2c0-2.6-0.7-4.6-2-6
		c-1.3-1.4-3.2-2.1-5.6-2.1c-2.3,0-4.2,0.6-5.4,1.9c-1.3,1.2-1.9,3-1.9,5.2l-0.7-7c1.1-2.2,2.6-3.9,4.4-5.1c1.8-1.2,3.8-1.8,6-1.8
		c4,0,7,1.3,9.2,3.9c2.2,2.6,3.3,6.3,3.3,11v22.1h-7.2V90.2z"/>
	<path class="st1" d="M151.5,111.2c-1.9-1.2-3.3-2.9-4.3-5.1c-1-2.2-1.5-4.9-1.5-8V90c0-3.1,0.5-5.8,1.4-8.1c1-2.2,2.4-3.9,4.2-5.1
		c1.8-1.2,4-1.7,6.6-1.7c2.2,0,4.1,0.6,5.9,1.7s3.2,2.7,4.3,4.7l-0.7,7.5c0-1.5-0.3-2.9-0.8-4c-0.6-1.1-1.4-1.9-2.4-2.5
		c-1.1-0.6-2.4-0.9-3.9-0.9c-2.4,0-4.2,0.7-5.5,2.2s-2,3.6-2,6.2v7.9c0,2.6,0.7,4.7,2,6.1s3.1,2.2,5.5,2.2c1.5,0,2.8-0.3,3.9-0.9
		c1.1-0.6,1.9-1.5,2.4-2.6s0.8-2.5,0.8-4l0.5,7.7c-0.7,1.8-1.9,3.3-3.6,4.5s-3.7,1.8-6.1,1.8C155.7,112.9,153.4,112.3,151.5,111.2z
		 M154.9,127.1c0,0-1.1-0.5-3.3-1.5c-2.2-1-3.8-2.5-5-4.3l4.9-4.4c0.9,1.3,2.1,2.3,3.4,3s2.7,1.1,4.1,1.1c2.7,0,4.9-0.8,6.4-2.3
		c1.5-1.5,2.3-3.7,2.3-6.4V75.8h7.2v35.4c0,3.4-0.6,6.2-1.8,8.6s-3,4.2-5.4,5.4c-2.3,1.2-5.2,1.9-8.5,1.9
		C156.3,127.1,154.9,127.1,154.9,127.1z"/>
	<path class="st0" d="M226.4,62h8.2v51.1h-8.2V62z M233,90.7L255.6,62h8.8l-32.4,39.4L233,90.7z M241.5,85.8l5.7-5.2l19.4,32.5h-8.8
		L241.5,85.8z"/>
	<path class="st0" d="M182.4,61.6h7.2v51.1h-7.2V61.6z M186.8,84.1h28.4v6.8h-28.4V84.1z M211.4,61.6h7.2v51.1h-7.2V61.6z"/>
</g>
</svg>
